<svg width="256" height="256" viewBox="0 0 256 256" fill="none" xmlns="http://www.w3.org/2000/svg">
<rect width="256" height="256" rx="50" fill="#FEF6E4"/>
<path d="M124.75 64.12C124.75 59.92 124.51 56.56 124.03 54.04C123.67 51.4 122.89 49.36 121.69 47.92C120.49 46.36 118.75 45.34 116.47 44.86C114.31 44.26 111.37 43.84 107.65 43.6V36.4H168.31V43.6C164.59 43.72 161.59 44.08 159.31 44.68C157.03 45.28 155.29 46.36 154.09 47.92C152.89 49.48 152.11 51.64 151.75 54.4C151.39 57.16 151.21 60.82 151.21 65.38V175.36C151.21 190.48 147.37 202 139.69 209.92C132.01 217.84 120.55 221.8 105.31 221.8C94.3896 221.8 85.9896 219.94 80.1096 216.22C74.1096 212.5 71.1096 207.76 71.1096 202C71.1096 198.52 72.2496 195.82 74.5296 193.9C76.6896 192.1 79.3896 191.2 82.6296 191.2C85.3896 191.2 87.6096 191.92 89.2896 193.36C90.8496 194.8 92.8296 197.5 95.2296 201.46C97.6296 205.42 99.7896 208.06 101.71 209.38C103.63 210.7 105.97 211.36 108.73 211.36C113.89 211.36 117.85 208.54 120.61 202.9C123.37 197.26 124.75 189.34 124.75 179.14V64.12Z" fill="#001858"/>
</svg>
